<svg width="11" height="12" viewBox="0 0 11 12" fill="none" xmlns="http://www.w3.org/2000/svg">
<path d="M10.7339 2.29525C10.5632 1.85412 10.3171 1.45438 10.0094 1.11839C9.70139 0.781402 9.33829 0.513603 8.9398 0.329555C8.52658 0.13795 8.08339 0.039876 7.63594 0.0410256C7.00821 0.0410256 6.39576 0.232904 5.86352 0.595342C5.73619 0.682043 5.61523 0.777272 5.50063 0.881029C5.38603 0.777272 5.26507 0.682043 5.13774 0.595342C4.6055 0.232904 3.99305 0.0410256 3.36532 0.0410256C2.9133 0.0410256 2.47528 0.137676 2.06146 0.329555C1.66165 0.514327 1.30131 0.780115 0.991896 1.11839C0.683755 1.454 0.437603 1.85384 0.267392 2.29525C0.0904039 2.75433 0 3.24185 0 3.74358C0 4.21688 0.086584 4.71008 0.258479 5.21181C0.402361 5.6311 0.608634 6.06602 0.872206 6.50521C1.28985 7.20024 1.8641 7.92512 2.57715 8.65994C3.75876 9.87802 4.92892 10.7194 4.97858 10.7536L5.28035 10.9696C5.41405 11.0648 5.58594 11.0648 5.71964 10.9696L6.02141 10.7536C6.07107 10.718 7.23995 9.87802 8.42284 8.65994C9.13588 7.92512 9.71014 7.20024 10.1278 6.50521C10.3914 6.06602 10.5989 5.6311 10.7415 5.21181C10.9134 4.71008 11 4.21688 11 3.74358C11.0013 3.24185 10.9109 2.75433 10.7339 2.29525Z" fill="#F24E1E"/>
</svg>
